# This file uses inches as units for non-parametric coordinates.

mtllib mug.mtl
g default
v 3.553249 1.257236 -0.000000
v 2.296013 1.778000 -0.000000
v 2.296013 -1.778000 0.000000
v 3.553249 -1.257236 0.000000
v 3.717936 0.463052 0.000000
v 3.605854 1.309841 0.179605
v 2.296013 1.852395 0.179605
v 2.296013 -1.852395 0.179605
v 3.605854 -1.309841 0.179605
v 3.792331 0.463052 0.179605
v 3.732854 1.436841 0.254000
v 2.296013 2.032000 0.254000
v 2.296013 -2.032000 0.254000
v 3.732854 -1.436841 0.254000
v 3.971936 0.463052 0.254000
v 3.859854 1.563841 0.179605
v 2.296013 2.211605 0.179605
v 2.296013 -2.211605 0.179605
v 3.859854 -1.563841 0.179605
v 4.151541 0.463052 0.179605
v 3.912459 1.616446 -0.000000
v 2.296013 2.286000 -0.000000
v 2.296013 -2.286000 0.000000
v 3.912459 -1.616446 0.000000
v 4.225936 0.463052 0.000000
v 3.859854 1.563841 -0.179605
v 2.296013 2.211605 -0.179605
v 2.296013 -2.211605 -0.179605
v 3.859854 -1.563841 -0.179605
v 4.151541 0.463052 -0.179605
v 3.732854 1.436841 -0.254000
v 2.296013 2.032000 -0.254000
v 2.296013 -2.032000 -0.254000
v 3.732854 -1.436841 -0.254000
v 3.971936 0.463052 -0.254000
v 3.605854 1.309841 -0.179605
v 2.296013 1.852395 -0.179605
v 2.296013 -1.852395 -0.179605
v 3.605854 -1.309841 -0.179605
v 3.792331 0.463052 -0.179605
v 2.296013 2.032000 -0.000000
v 2.296013 -2.032000 0.000000
vt 0.000000 1.000000
vt 0.125000 1.000000
vt 0.625000 1.000000
vt 0.750000 1.000000
vt 0.875000 1.000000
vt 1.000000 1.000000
vt 0.000000 0.875000
vt 0.125000 0.875000
vt 0.625000 0.875000
vt 0.750000 0.875000
vt 0.875000 0.875000
vt 1.000000 0.875000
vt 0.000000 0.750000
vt 0.125000 0.750000
vt 0.625000 0.750000
vt 0.750000 0.750000
vt 0.875000 0.750000
vt 1.000000 0.750000
vt 0.000000 0.625000
vt 0.125000 0.625000
vt 0.625000 0.625000
vt 0.750000 0.625000
vt 0.875000 0.625000
vt 1.000000 0.625000
vt 0.000000 0.500000
vt 0.125000 0.500000
vt 0.625000 0.500000
vt 0.750000 0.500000
vt 0.875000 0.500000
vt 1.000000 0.500000
vt 0.000000 0.375000
vt 0.125000 0.375000
vt 0.625000 0.375000
vt 0.750000 0.375000
vt 0.875000 0.375000
vt 1.000000 0.375000
vt 0.000000 0.250000
vt 0.125000 0.250000
vt 0.625000 0.250000
vt 0.750000 0.250000
vt 0.875000 0.250000
vt 1.000000 0.250000
vt 0.000000 0.125000
vt 0.125000 0.125000
vt 0.625000 0.125000
vt 0.750000 0.125000
vt 0.875000 0.125000
vt 1.000000 0.125000
vt 0.000000 0.000000
vt 0.125000 0.000000
vt 0.625000 0.000000
vt 0.750000 0.000000
vt 0.875000 0.000000
vt 1.000000 0.000000
vt 0.125000 0.750000
vt 0.625000 0.250000
vn -0.357407 -0.862856 0.357407
vn -0.357407 -0.862856 0.357407
vn -0.357407 -0.862856 0.357407
vn -0.357407 -0.862856 0.357407
vn -0.357407 0.862856 0.357407
vn -0.357407 0.862856 0.357407
vn -0.357407 0.862856 0.357407
vn -0.357407 0.862856 0.357407
vn -0.934240 0.093918 0.344058
vn -0.934240 0.093918 0.344058
vn -0.934240 0.093918 0.344058
vn -0.934240 0.093918 0.344058
vn -0.915186 -0.195847 0.352248
vn -0.915186 -0.195847 0.352248
vn -0.915186 -0.195847 0.352248
vn -0.915186 -0.195847 0.352248
vn -0.156558 -0.377964 0.912487
vn -0.156558 -0.377964 0.912487
vn -0.156558 -0.377964 0.912487
vn -0.156558 -0.377964 0.912487
vn -0.156558 0.377964 0.912487
vn -0.156558 0.377964 0.912487
vn -0.156558 0.377964 0.912487
vn -0.156558 0.377964 0.912487
vn -0.419697 0.048629 0.906361
vn -0.419697 0.048629 0.906361
vn -0.419697 0.048629 0.906361
vn -0.419697 0.048629 0.906361
vn -0.402812 -0.094157 0.910427
vn -0.402812 -0.094157 0.910427
vn -0.402812 -0.094157 0.910427
vn -0.402812 -0.094157 0.910427
vn 0.156558 0.377965 0.912487
vn 0.156558 0.377965 0.912487
vn 0.156558 0.377965 0.912487
vn 0.156558 0.377965 0.912487
vn 0.156558 -0.377965 0.912487
vn 0.156558 -0.377965 0.912487
vn 0.156558 -0.377965 0.912487
vn 0.156558 -0.377965 0.912487
vn 0.416907 -0.056352 0.907201
vn 0.416907 -0.056352 0.907201
vn 0.416907 -0.056352 0.907201
vn 0.416907 -0.056352 0.907201
vn 0.399698 0.102260 0.910925
vn 0.399698 0.102260 0.910925
vn 0.399698 0.102260 0.910925
vn 0.399698 0.102260 0.910925
vn 0.357407 0.862856 0.357407
vn 0.357407 0.862856 0.357407
vn 0.357407 0.862856 0.357407
vn 0.357407 0.862856 0.357407
vn 0.357407 -0.862856 0.357407
vn 0.357407 -0.862856 0.357407
vn 0.357407 -0.862856 0.357407
vn 0.357407 -0.862856 0.357407
vn 0.927499 -0.136687 0.347940
vn 0.927499 -0.136687 0.347940
vn 0.927499 -0.136687 0.347940
vn 0.927499 -0.136687 0.347940
vn 0.902986 0.242418 0.354754
vn 0.902986 0.242418 0.354754
vn 0.902986 0.242418 0.354754
vn 0.902986 0.242418 0.354754
vn 0.357407 0.862856 -0.357407
vn 0.357407 0.862856 -0.357407
vn 0.357407 0.862856 -0.357407
vn 0.357407 0.862856 -0.357407
vn 0.357407 -0.862856 -0.357407
vn 0.357407 -0.862856 -0.357407
vn 0.357407 -0.862856 -0.357407
vn 0.357407 -0.862856 -0.357407
vn 0.927499 -0.136687 -0.347940
vn 0.927499 -0.136687 -0.347940
vn 0.927499 -0.136687 -0.347940
vn 0.927499 -0.136687 -0.347940
vn 0.902986 0.242418 -0.354754
vn 0.902986 0.242418 -0.354754
vn 0.902986 0.242418 -0.354754
vn 0.902986 0.242418 -0.354754
vn 0.156558 0.377965 -0.912487
vn 0.156558 0.377965 -0.912487
vn 0.156558 0.377965 -0.912487
vn 0.156558 0.377965 -0.912487
vn 0.156558 -0.377965 -0.912487
vn 0.156558 -0.377965 -0.912487
vn 0.156558 -0.377965 -0.912487
vn 0.156558 -0.377965 -0.912487
vn 0.416907 -0.056352 -0.907201
vn 0.416907 -0.056352 -0.907201
vn 0.416907 -0.056352 -0.907201
vn 0.416907 -0.056352 -0.907201
vn 0.399698 0.102260 -0.910925
vn 0.399698 0.102260 -0.910925
vn 0.399698 0.102260 -0.910925
vn 0.399698 0.102260 -0.910925
vn -0.156558 -0.377964 -0.912487
vn -0.156558 -0.377965 -0.912487
vn -0.156558 -0.377964 -0.912487
vn -0.156558 -0.377965 -0.912487
vn -0.156558 0.377965 -0.912487
vn -0.156558 0.377965 -0.912487
vn -0.156558 0.377965 -0.912487
vn -0.156558 0.377965 -0.912487
vn -0.419697 0.048629 -0.906361
vn -0.419697 0.048629 -0.906361
vn -0.419697 0.048629 -0.906361
vn -0.419697 0.048629 -0.906361
vn -0.402812 -0.094157 -0.910427
vn -0.402812 -0.094157 -0.910427
vn -0.402812 -0.094157 -0.910427
vn -0.402812 -0.094157 -0.910427
vn -0.357407 -0.862856 -0.357407
vn -0.357407 -0.862856 -0.357407
vn -0.357407 -0.862856 -0.357407
vn -0.357407 -0.862856 -0.357407
vn -0.357407 0.862856 -0.357407
vn -0.357407 0.862856 -0.357407
vn -0.357407 0.862856 -0.357407
vn -0.357407 0.862856 -0.357407
vn -0.934240 0.093918 -0.344057
vn -0.934240 0.093918 -0.344057
vn -0.934240 0.093918 -0.344057
vn -0.934240 0.093918 -0.344057
vn -0.915186 -0.195847 -0.352248
vn -0.915186 -0.195847 -0.352248
vn -0.915186 -0.195847 -0.352248
vn -0.915186 -0.195847 -0.352248
vn -1.000000 0.000000 0.000000
vn -1.000000 0.000000 0.000000
vn -1.000000 0.000000 0.000000
vn -1.000000 0.000000 0.000000
vn -1.000000 0.000000 0.000000
vn -1.000000 0.000000 0.000000
vn -1.000000 0.000000 0.000000
vn -1.000000 0.000000 0.000000
vn -1.000000 0.000000 0.000000
vn -1.000000 0.000000 0.000000
vn -1.000000 0.000000 0.000000
vn -1.000000 0.000000 0.000000
vn -1.000000 0.000000 0.000000
vn -1.000000 0.000000 0.000000
vn -1.000000 0.000000 0.000000
vn -1.000000 0.000000 0.000000
vn -1.000000 0.000000 0.000000
vn -1.000000 0.000000 0.000000
s off
g handle mug
usemtl initialShadingGroup
f 2/2/1 1/1/2 6/7/3 7/8/4
f 4/4/5 3/3/6 8/9/7 9/10/8
f 5/5/9 4/4/10 9/10/11 10/11/12
f 1/6/13 5/5/14 10/11/15 6/12/16
f 7/8/17 6/7/18 11/13/19 12/14/20
f 9/10/21 8/9/22 13/15/23 14/16/24
f 10/11/25 9/10/26 14/16/27 15/17/28
f 6/12/29 10/11/30 15/17/31 11/18/32
f 12/14/33 11/13/34 16/19/35 17/20/36
f 14/16/37 13/15/38 18/21/39 19/22/40
f 15/17/41 14/16/42 19/22/43 20/23/44
f 11/18/45 15/17/46 20/23/47 16/24/48
f 17/20/49 16/19/50 21/25/51 22/26/52
f 19/22/53 18/21/54 23/27/55 24/28/56
f 20/23/57 19/22/58 24/28/59 25/29/60
f 16/24/61 20/23/62 25/29/63 21/30/64
f 22/26/65 21/25/66 26/31/67 27/32/68
f 24/28/69 23/27/70 28/33/71 29/34/72
f 25/29/73 24/28/74 29/34/75 30/35/76
f 21/30/77 25/29/78 30/35/79 26/36/80
f 27/32/81 26/31/82 31/37/83 32/38/84
f 29/34/85 28/33/86 33/39/87 34/40/88
f 30/35/89 29/34/90 34/40/91 35/41/92
f 26/36/93 30/35/94 35/41/95 31/42/96
f 32/38/97 31/37/98 36/43/99 37/44/100
f 34/40/101 33/39/102 38/45/103 39/46/104
f 35/41/105 34/40/106 39/46/107 40/47/108
f 31/42/109 35/41/110 40/47/111 36/48/112
f 37/44/113 36/43/114 1/49/115 2/50/116
f 39/46/117 38/45/118 3/51/119 4/52/120
f 40/47/121 39/46/122 4/52/123 5/53/124
f 36/48/125 40/47/126 5/53/127 1/54/128
s 1
f 41/55/129 12/14/130 17/20/131 22/26/132
s 2
f 8/9/133 3/51/134 42/56/135 13/15/136
s 1
f 32/38/137 41/55/129 22/26/132 27/32/138
f 2/2/139 41/55/129 32/38/137 37/44/140
f 7/8/141 12/14/130 41/55/129 2/2/139
s 2
f 33/39/142 42/56/135 3/51/134 38/45/143
f 23/27/144 42/56/135 33/39/142 28/33/145
f 13/15/136 42/56/135 23/27/144 18/21/146
g default
v 0.972016 -2.540000 -2.346653
v -0.972015 -2.540000 -2.346653
v -2.346653 -2.540000 -0.972016
v -2.346653 -2.540000 0.972015
v -0.972016 -2.540000 2.346653
v 0.972015 -2.540000 2.346653
v 2.346654 -2.540000 0.972016
v 2.346654 -2.540000 -0.972016
v 0.972016 2.540000 -2.346653
v -0.972015 2.540000 -2.346653
v -2.346653 2.540000 -0.972016
v -2.346653 2.540000 0.972015
v -0.972016 2.540000 2.346653
v 0.972015 2.540000 2.346653
v 2.346654 2.540000 0.972016
v 2.346654 2.540000 -0.972016
v 0.196024 -2.540000 -0.473243
v -0.196024 -2.540000 -0.473244
v -0.473244 -2.540000 -0.196024
v -0.473244 -2.540000 0.196024
v -0.196024 -2.540000 0.473244
v 0.196024 -2.540000 0.473243
v 0.473244 -2.540000 0.196024
v 0.473244 -2.540000 -0.196024
v -0.000000 -2.540000 -0.000000
v 0.835230 2.540000 -2.016423
v -0.835230 2.540000 -2.016423
v -2.016423 2.540000 -0.835230
v -2.016423 2.540000 0.835230
v -0.835230 2.540000 2.016423
v 0.835230 2.540000 2.016423
v 2.016423 2.540000 0.835230
v 2.016423 2.540000 -0.835230
v 0.835230 -2.006938 -2.016422
v -0.835230 -2.006938 -2.016422
v -2.016423 -2.006938 -0.835230
v -2.016423 -2.006938 0.835230
v -0.835230 -2.006938 2.016423
v 0.835229 -2.006938 2.016422
v 2.016423 -2.006939 0.835230
v 2.016423 -2.006939 -0.835230
v 0.131442 -2.006938 -0.317329
v -0.131442 -2.006938 -0.317329
v -0.317330 -2.006938 -0.131442
v -0.317329 -2.006938 0.131442
v -0.131442 -2.006938 0.317329
v 0.131442 -2.006938 0.317329
v 0.317330 -2.006938 0.131441
v 0.317330 -2.006939 -0.131442
v -0.000000 -2.006938 0.000000
vt 0.375000 0.312500
vt 0.406250 0.312500
vt 0.437500 0.312500
vt 0.468750 0.312500
vt 0.500000 0.312500
vt 0.531250 0.312500
vt 0.562500 0.312500
vt 0.593750 0.312500
vt 0.625000 0.312500
vt 0.375000 0.688440
vt 0.406250 0.688440
vt 0.437500 0.688440
vt 0.468750 0.688440
vt 0.500000 0.688440
vt 0.531250 0.688440
vt 0.562500 0.688440
vt 0.593750 0.688440
vt 0.625000 0.688440
vt 0.000000 0.000000
vt 1.000000 0.000000
vt 1.000000 1.000000
vt 0.000000 1.000000
vt 0.000000 0.000000
vt 1.000000 0.000000
vt 1.000000 1.000000
vt 0.000000 1.000000
vt 0.000000 0.000000
vt 1.000000 0.000000
vt 1.000000 1.000000
vt 0.000000 1.000000
vt 0.000000 0.000000
vt 1.000000 0.000000
vt 1.000000 1.000000
vt 0.000000 1.000000
vt 0.000000 0.000000
vt 1.000000 0.000000
vt 1.000000 1.000000
vt 0.000000 1.000000
vt 0.000000 0.000000
vt 1.000000 0.000000
vt 1.000000 1.000000
vt 0.000000 1.000000
vt 0.000000 0.000000
vt 1.000000 0.000000
vt 1.000000 1.000000
vt 0.000000 1.000000
vt 0.000000 0.000000
vt 1.000000 0.000000
vt 1.000000 1.000000
vt 0.000000 1.000000
vt 0.000000 1.000000
vt 0.000000 0.000000
vt 1.000000 0.000000
vt 1.000000 1.000000
vt 0.000000 1.000000
vt 0.000000 0.000000
vt 1.000000 0.000000
vt 1.000000 1.000000
vt 0.000000 1.000000
vt 0.000000 0.000000
vt 1.000000 0.000000
vt 1.000000 1.000000
vt 0.000000 1.000000
vt 0.000000 0.000000
vt 1.000000 0.000000
vt 1.000000 1.000000
vt 0.000000 1.000000
vt 0.000000 0.000000
vt 1.000000 0.000000
vt 1.000000 1.000000
vt 0.000000 1.000000
vt 0.000000 0.000000
vt 1.000000 0.000000
vt 1.000000 1.000000
vt 0.000000 1.000000
vt 0.000000 0.000000
vt 1.000000 0.000000
vt 1.000000 1.000000
vt 0.000000 1.000000
vt 0.000000 0.000000
vt 1.000000 0.000000
vt 1.000000 1.000000
vt 0.000000 1.000000
vt 0.000000 0.000000
vt 1.000000 0.000000
vt 1.000000 1.000000
vt 0.000000 1.000000
vt 0.000000 0.000000
vt 1.000000 0.000000
vt 1.000000 1.000000
vt 0.000000 1.000000
vt 0.000000 0.000000
vt 1.000000 0.000000
vt 1.000000 1.000000
vt 0.000000 1.000000
vt 0.000000 0.000000
vt 1.000000 0.000000
vt 1.000000 1.000000
vt 0.000000 1.000000
vt 0.000000 0.000000
vt 1.000000 0.000000
vt 1.000000 1.000000
vt 0.000000 1.000000
vt 0.000000 0.000000
vt 1.000000 0.000000
vt 1.000000 1.000000
vt 0.000000 1.000000
vt 0.000000 0.000000
vt 1.000000 0.000000
vt 1.000000 1.000000
vt 0.000000 1.000000
vt 0.000000 0.000000
vt 1.000000 0.000000
vt 1.000000 1.000000
vt 0.000000 1.000000
vt 0.000000 0.000000
vt 1.000000 0.000000
vt 1.000000 1.000000
vt 0.000000 1.000000
vt 0.000000 0.000000
vt 1.000000 0.000000
vt 1.000000 1.000000
vt 0.000000 1.000000
vt 0.000000 0.000000
vt 1.000000 0.000000
vt 1.000000 1.000000
vt 0.000000 1.000000
vt 0.000000 0.000000
vt 1.000000 0.000000
vt 1.000000 1.000000
vt 0.000000 1.000000
vt 0.000000 0.000000
vt 1.000000 0.000000
vt 1.000000 1.000000
vt 0.000000 1.000000
vt 0.000000 0.000000
vt 1.000000 0.000000
vt 1.000000 1.000000
vt 0.000000 1.000000
vt 0.000000 0.000000
vt 1.000000 0.000000
vt 1.000000 1.000000
vt 0.000000 1.000000
vt 0.000000 0.000000
vt 1.000000 0.000000
vt 1.000000 1.000000
vt 0.000000 1.000000
vt 0.000000 1.000000
vn -0.000000 0.000000 -1.000000
vn -0.000000 0.000000 -1.000000
vn -0.000000 0.000000 -1.000000
vn -0.000000 0.000000 -1.000000
vn -0.707107 0.000000 -0.707107
vn -0.707107 0.000000 -0.707107
vn -0.707107 0.000000 -0.707107
vn -0.707107 0.000000 -0.707107
vn -1.000000 0.000000 0.000000
vn -1.000000 0.000000 0.000000
vn -1.000000 0.000000 0.000000
vn -1.000000 0.000000 0.000000
vn -0.707107 0.000000 0.707107
vn -0.707107 0.000000 0.707107
vn -0.707107 0.000000 0.707107
vn -0.707107 0.000000 0.707107
vn 0.000000 0.000000 1.000000
vn 0.000000 0.000000 1.000000
vn 0.000000 0.000000 1.000000
vn 0.000000 0.000000 1.000000
vn 0.707106 0.000000 0.707107
vn 0.707106 0.000000 0.707107
vn 0.707106 0.000000 0.707107
vn 0.707106 0.000000 0.707107
vn 1.000000 0.000000 0.000000
vn 1.000000 0.000000 0.000000
vn 1.000000 0.000000 0.000000
vn 1.000000 0.000000 0.000000
vn 0.707106 0.000000 -0.707107
vn 0.707106 0.000000 -0.707107
vn 0.707106 0.000000 -0.707107
vn 0.707106 0.000000 -0.707107
vn 0.000000 -1.000000 0.000000
vn 0.000000 -1.000000 0.000000
vn 0.000000 -1.000000 0.000000
vn 0.000000 -1.000000 0.000000
vn 0.000000 -1.000000 0.000000
vn 0.000000 -1.000000 0.000000
vn -0.000000 -1.000000 -0.000000
vn -0.000000 -1.000000 -0.000000
vn -0.000000 -1.000000 -0.000000
vn -0.000000 -1.000000 -0.000000
vn -0.000000 -1.000000 -0.000000
vn -0.000000 -1.000000 -0.000000
vn -0.000000 -1.000000 -0.000000
vn -0.000000 -1.000000 -0.000000
vn 0.000000 -1.000000 0.000000
vn 0.000000 -1.000000 0.000000
vn -0.000000 -1.000000 -0.000000
vn -0.000000 -1.000000 -0.000000
vn 0.000000 -1.000000 0.000000
vn 0.000000 -1.000000 0.000000
vn 0.000000 -1.000000 0.000000
vn 0.000000 -1.000000 0.000000
vn -0.000000 -1.000000 -0.000000
vn 0.000000 -1.000000 0.000000
vn -0.000000 -1.000000 -0.000001
vn -0.000000 1.000000 -0.000000
vn -0.000000 1.000000 -0.000000
vn -0.000000 1.000000 -0.000000
vn -0.000000 1.000000 -0.000000
vn -0.000000 1.000000 -0.000000
vn -0.000000 1.000000 -0.000000
vn -0.000000 1.000000 -0.000000
vn -0.000000 1.000000 -0.000000
vn 0.000000 1.000000 0.000000
vn 0.000000 1.000000 0.000000
vn 0.000000 1.000000 0.000000
vn 0.000000 1.000000 0.000000
vn 0.000000 1.000000 0.000000
vn 0.000000 1.000000 0.000000
vn -0.000000 1.000000 -0.000000
vn -0.000000 1.000000 -0.000000
vn 0.000000 0.000000 1.000000
vn 0.000000 0.000000 1.000000
vn 0.000000 0.000000 1.000000
vn 0.000000 0.000000 1.000000
vn 0.707107 0.000000 0.707107
vn 0.707107 0.000000 0.707107
vn 0.707107 0.000000 0.707107
vn 0.707107 0.000000 0.707107
vn 1.000000 0.000000 -0.000000
vn 1.000000 0.000000 -0.000000
vn 1.000000 0.000000 -0.000000
vn 1.000000 0.000000 -0.000000
vn 0.707107 0.000000 -0.707107
vn 0.707107 0.000000 -0.707107
vn 0.707107 0.000000 -0.707107
vn 0.707107 0.000000 -0.707107
vn -0.000000 0.000000 -1.000000
vn -0.000000 0.000000 -1.000000
vn -0.000000 0.000000 -1.000000
vn -0.000000 0.000000 -1.000000
vn -0.707107 0.000000 -0.707107
vn -0.707107 0.000000 -0.707107
vn -0.707107 0.000000 -0.707107
vn -0.707107 0.000000 -0.707107
vn -1.000000 0.000000 -0.000000
vn -1.000000 0.000000 -0.000000
vn -1.000000 0.000000 -0.000000
vn -1.000000 0.000000 -0.000000
vn -0.707107 0.000000 0.707107
vn -0.707107 0.000000 0.707107
vn -0.707107 0.000000 0.707107
vn -0.707107 0.000000 0.707107
vn 0.000000 1.000000 0.000000
vn 0.000000 1.000000 0.000000
vn 0.000000 1.000000 0.000000
vn 0.000000 1.000000 0.000000
vn 0.000000 1.000000 0.000000
vn 0.000000 1.000000 0.000000
vn 0.000000 1.000000 0.000000
vn 0.000000 1.000000 0.000000
vn 0.000000 1.000000 0.000000
vn 0.000000 1.000000 0.000000
vn 0.000000 1.000000 -0.000000
vn 0.000000 1.000000 -0.000000
vn 0.000000 1.000000 -0.000000
vn 0.000000 1.000000 -0.000000
vn 0.000000 1.000000 0.000000
vn 0.000000 1.000000 0.000000
vn 0.000001 1.000000 -0.000000
vn 0.000001 1.000000 -0.000000
vn 0.000001 1.000000 -0.000000
vn 0.000001 1.000000 -0.000001
vn 0.000001 1.000000 -0.000000
vn 0.000001 1.000000 -0.000000
vn 0.000001 1.000000 0.000000
vn 0.000001 1.000000 -0.000000
vn 0.000000 1.000000 -0.000000
s off
g mug cup
usemtl initialShadingGroup
f 43/57/147 44/58/148 52/67/149 51/66/150
f 44/58/151 45/59/152 53/68/153 52/67/154
f 45/59/155 46/60/156 54/69/157 53/68/158
f 46/60/159 47/61/160 55/70/161 54/69/162
f 47/61/163 48/62/164 56/71/165 55/70/166
f 48/62/167 49/63/168 57/72/169 56/71/170
f 49/63/171 50/64/172 58/73/173 57/72/174
f 50/64/175 43/65/176 51/74/177 58/73/178
s 1
f 44/75/179 43/76/180 59/77/181 60/78/182
f 45/79/183 44/80/179 60/81/182 61/82/184
f 46/83/185 45/84/183 61/85/184 62/86/186
f 47/87/187 46/88/185 62/89/186 63/90/188
f 48/91/189 47/92/187 63/93/188 64/94/190
f 49/95/191 48/96/189 64/97/190 65/98/192
f 50/99/193 49/100/191 65/101/192 66/102/194
f 43/103/180 50/104/193 66/105/194 59/106/181
s 2
f 67/107/195 66/102/196 65/98/197 64/94/198
f 62/86/199 67/107/195 64/94/198 63/90/200
f 60/78/201 67/107/195 62/86/199 61/82/202
f 60/78/201 59/106/203 66/102/196 67/107/195
s 3
f 51/108/204 52/109/205 69/110/206 68/111/207
f 52/112/205 53/113/208 70/114/209 69/115/206
f 53/116/208 54/117/210 71/118/211 70/119/209
f 54/120/210 55/121/212 72/122/213 71/123/211
f 55/124/212 56/125/214 73/126/215 72/127/213
f 56/128/214 57/129/216 74/130/217 73/131/215
f 57/132/216 58/133/218 75/134/219 74/135/217
f 58/136/218 51/137/204 68/138/207 75/139/219
s off
f 68/140/220 69/141/221 77/142/222 76/143/223
f 69/144/224 70/145/225 78/146/226 77/147/227
f 70/148/228 71/149/229 79/150/230 78/151/231
f 71/152/232 72/153/233 80/154/234 79/155/235
f 72/156/236 73/157/237 81/158/238 80/159/239
f 73/160/240 74/161/241 82/162/242 81/163/243
f 74/164/244 75/165/245 83/166/246 82/167/247
f 75/168/248 68/169/249 76/170/250 83/171/251
s 4
f 76/172/252 77/173/253 85/174/254 84/175/255
f 77/176/253 78/177/256 86/178/257 85/179/254
f 78/180/256 79/181/258 87/182/259 86/183/257
f 79/184/258 80/185/260 88/186/261 87/187/259
f 80/188/260 81/189/262 89/190/263 88/191/261
f 81/192/262 82/193/264 90/194/265 89/195/263
f 82/196/264 83/197/266 91/198/267 90/199/265
f 83/200/266 76/201/252 84/202/255 91/203/267
s 5
f 85/179/268 92/204/269 91/203/270 84/175/271
f 91/203/270 92/204/269 89/195/272 90/199/273
f 85/179/268 86/183/274 87/187/275 92/204/269
f 89/195/272 92/204/269 87/187/275 88/191/276
