# This file uses inches as units for non-parametric coordinates.

mtllib stapler.mtl
g default
v -6.789673 -0.363445 2.263224
v -2.540000 -0.363445 2.540000
v 2.540000 -0.363445 2.540000
v 6.789673 -0.363445 2.263224
v -6.789673 0.363445 2.263224
v -2.540000 0.363445 2.540000
v 2.540000 0.363445 2.540000
v 6.789673 0.363445 2.263224
v -7.620000 0.363445 0.846667
v -2.540000 0.363445 0.846667
v 2.540000 0.363445 0.846667
v 7.620000 0.363445 0.846667
v -7.620000 0.363445 -0.846667
v -2.540000 0.363445 -0.846667
v 2.540000 0.363445 -0.846667
v 7.620000 0.363445 -0.846667
v -6.789673 0.363445 -2.263224
v -2.540000 0.363445 -2.540000
v 2.540000 0.363445 -2.540000
v 6.789673 0.363445 -2.263224
v -6.789673 -0.363445 -2.263224
v -2.540000 -0.363445 -2.540000
v 2.540000 -0.363445 -2.540000
v 6.789673 -0.363445 -2.263224
v -7.620000 -0.363445 -0.846667
v -2.540000 -0.363445 -0.846667
v 2.540000 -0.363445 -0.846667
v 7.620000 -0.363445 -0.846667
v -7.620000 -0.363445 0.846667
v -2.540000 -0.363445 0.846667
v 2.540000 -0.363445 0.846667
v 7.620000 -0.363445 0.846667
vt 0.375000 0.000000
vt 0.458333 0.000000
vt 0.541667 0.000000
vt 0.625000 0.000000
vt 0.375000 0.250000
vt 0.458333 0.250000
vt 0.541667 0.250000
vt 0.625000 0.250000
vt 0.375000 0.333333
vt 0.458333 0.333333
vt 0.541667 0.333333
vt 0.625000 0.333333
vt 0.375000 0.416667
vt 0.458333 0.416667
vt 0.541667 0.416667
vt 0.625000 0.416667
vt 0.375000 0.500000
vt 0.458333 0.500000
vt 0.541667 0.500000
vt 0.625000 0.500000
vt 0.375000 0.750000
vt 0.458333 0.750000
vt 0.541667 0.750000
vt 0.625000 0.750000
vt 0.375000 0.833333
vt 0.458333 0.833333
vt 0.541667 0.833333
vt 0.625000 0.833333
vt 0.375000 0.916667
vt 0.458333 0.916667
vt 0.541667 0.916667
vt 0.625000 0.916667
vt 0.375000 1.000000
vt 0.458333 1.000000
vt 0.541667 1.000000
vt 0.625000 1.000000
vt 0.875000 0.000000
vt 0.791667 0.000000
vt 0.708333 0.000000
vt 0.875000 0.250000
vt 0.791667 0.250000
vt 0.708333 0.250000
vt 0.125000 0.000000
vt 0.208333 0.000000
vt 0.291667 0.000000
vt 0.125000 0.250000
vt 0.208333 0.250000
vt 0.291667 0.250000
vn -0.064991 0.000000 0.997886
vn -0.029653 0.000000 0.999560
vn -0.029653 0.000000 0.999560
vn -0.064991 0.000000 0.997886
vn 0.029653 0.000000 0.999560
vn 0.029653 0.000000 0.999560
vn 0.064991 0.000000 0.997886
vn 0.064991 0.000000 0.997886
vn 0.000000 1.000000 -0.000000
vn 0.000000 1.000000 -0.000000
vn 0.000000 1.000000 -0.000000
vn 0.000000 1.000000 -0.000000
vn 0.000000 1.000000 0.000000
vn 0.000000 1.000000 0.000000
vn 0.000000 1.000000 0.000000
vn 0.000000 1.000000 0.000000
vn 0.000000 1.000000 0.000000
vn 0.000000 1.000000 0.000000
vn 0.000000 1.000000 0.000000
vn 0.000000 1.000000 0.000000
vn 0.000000 1.000000 0.000000
vn 0.000000 1.000000 0.000000
vn 0.000000 1.000000 0.000000
vn 0.000000 1.000000 0.000000
vn -0.064991 0.000000 -0.997886
vn -0.029653 0.000000 -0.999560
vn -0.029653 0.000000 -0.999560
vn -0.064991 0.000000 -0.997886
vn 0.029653 0.000000 -0.999560
vn 0.029653 0.000000 -0.999560
vn 0.064991 0.000000 -0.997886
vn 0.064991 0.000000 -0.997886
vn 0.000000 -1.000000 0.000000
vn 0.000000 -1.000000 0.000000
vn 0.000000 -1.000000 0.000000
vn 0.000000 -1.000000 0.000000
vn 0.000000 -1.000000 0.000000
vn 0.000000 -1.000000 0.000000
vn 0.000000 -1.000000 0.000000
vn 0.000000 -1.000000 0.000000
vn 0.000000 -1.000000 -0.000000
vn 0.000000 -1.000000 -0.000000
vn 0.000000 -1.000000 -0.000000
vn 0.000000 -1.000000 -0.000000
vn 0.000000 -1.000000 -0.000000
vn 0.000000 -1.000000 -0.000000
vn 0.000000 -1.000000 -0.000000
vn 0.000000 -1.000000 -0.000000
vn 0.966156 -0.000000 -0.257959
vn 0.862716 -0.000000 -0.505688
vn 0.862716 -0.000000 -0.505688
vn 0.966156 -0.000000 -0.257959
vn 0.966156 -0.000000 0.257959
vn 0.966156 -0.000000 0.257959
vn 0.862716 0.000000 0.505688
vn 0.862716 0.000000 0.505688
vn -0.862716 0.000000 -0.505688
vn -0.966156 0.000000 -0.257959
vn -0.966156 0.000000 -0.257959
vn -0.862716 0.000000 -0.505688
vn -0.966156 0.000000 0.257959
vn -0.966156 0.000000 0.257959
vn -0.862716 0.000000 0.505688
vn -0.862716 0.000000 0.505688
s 1
g bASE stapler_master
usemtl initialShadingGroup
f 1/1/1 2/2/2 6/6/3 5/5/4
f 2/2/2 3/3/5 7/7/6 6/6/3
f 3/3/5 4/4/7 8/8/8 7/7/6
s 2
f 5/5/9 6/6/10 10/10/11 9/9/12
f 6/6/10 7/7/13 11/11/14 10/10/11
f 7/7/13 8/8/15 12/12/16 11/11/14
f 9/9/12 10/10/11 14/14/17 13/13/18
f 10/10/11 11/11/14 15/15/19 14/14/17
f 11/11/14 12/12/16 16/16/20 15/15/19
f 13/13/18 14/14/17 18/18/21 17/17/22
f 14/14/17 15/15/19 19/19/23 18/18/21
f 15/15/19 16/16/20 20/20/24 19/19/23
s 3
f 17/17/25 18/18/26 22/22/27 21/21/28
f 18/18/26 19/19/29 23/23/30 22/22/27
f 19/19/29 20/20/31 24/24/32 23/23/30
s 4
f 21/21/33 22/22/34 26/26/35 25/25/36
f 22/22/34 23/23/37 27/27/38 26/26/35
f 23/23/37 24/24/39 28/28/40 27/27/38
f 25/25/36 26/26/35 30/30/41 29/29/42
f 26/26/35 27/27/38 31/31/43 30/30/41
f 27/27/38 28/28/40 32/32/44 31/31/43
f 29/29/42 30/30/41 2/34/45 1/33/46
f 30/30/41 31/31/43 3/35/47 2/34/45
f 31/31/43 32/32/44 4/36/48 3/35/47
s 5
f 28/38/49 24/37/50 20/40/51 16/41/52
f 32/39/53 28/38/49 16/41/52 12/42/54
f 4/4/55 32/39/53 12/42/54 8/8/56
s 6
f 21/43/57 25/44/58 13/47/59 17/46/60
f 25/44/58 29/45/61 9/48/62 13/47/59
f 29/45/61 1/1/63 5/5/64 9/48/62
g default
v -5.272363 3.377699 0.826249
v -4.522436 3.211266 0.826249
v -5.217331 3.625666 0.826249
v -4.467404 3.459232 0.826249
v -5.217331 3.625666 -0.826249
v -4.467404 3.459232 -0.826249
v -5.272363 3.377699 -0.826249
v -4.522436 3.211266 -0.826249
vt 0.375000 0.000000
vt 0.625000 0.000000
vt 0.375000 0.250000
vt 0.625000 0.250000
vt 0.375000 0.500000
vt 0.625000 0.500000
vt 0.375000 0.750000
vt 0.625000 0.750000
vt 0.375000 1.000000
vt 0.625000 1.000000
vt 0.875000 0.000000
vt 0.875000 0.250000
vt 0.125000 0.000000
vt 0.125000 0.250000
vn 0.000000 0.000000 1.000000
vn 0.000000 0.000000 1.000000
vn 0.000000 0.000000 1.000000
vn 0.000000 0.000000 1.000000
vn 0.216661 0.976247 0.000000
vn 0.216661 0.976247 0.000000
vn 0.216661 0.976247 0.000000
vn 0.216661 0.976247 0.000000
vn 0.000000 0.000000 -1.000000
vn 0.000000 0.000000 -1.000000
vn 0.000000 0.000000 -1.000000
vn 0.000000 0.000000 -1.000000
vn -0.216661 -0.976247 0.000000
vn -0.216661 -0.976247 0.000000
vn -0.216661 -0.976247 0.000000
vn -0.216661 -0.976247 0.000000
vn 0.976247 -0.216661 0.000000
vn 0.976247 -0.216661 0.000000
vn 0.976247 -0.216661 0.000000
vn 0.976247 -0.216661 0.000000
vn -0.976247 0.216662 0.000000
vn -0.976247 0.216662 0.000000
vn -0.976247 0.216662 0.000000
vn -0.976247 0.216662 0.000000
s off
g stapler_master top_metal group1
usemtl initialShadingGroup
f 33/49/65 34/50/66 36/52/67 35/51/68
f 35/51/69 36/52/70 38/54/71 37/53/72
f 37/53/73 38/54/74 40/56/75 39/55/76
f 39/55/77 40/56/78 34/58/79 33/57/80
f 34/50/81 40/59/82 38/60/83 36/52/84
f 39/61/85 33/49/86 35/51/87 37/62/88
g default
v -5.986788 3.623721 1.495219
v 5.871535 0.992046 0.971971
v -5.777085 4.463543 1.160189
v 6.081924 1.940060 0.971971
v -5.777085 4.463543 -1.160189
v 6.081924 1.940060 -0.971971
v -5.986788 3.623721 -1.495219
v 5.871535 0.992046 -0.971971
v 3.234232 2.572038 1.495219
v 3.234232 2.572038 -1.495219
v 3.023843 1.624024 -1.495219
v 3.023843 1.624024 1.495219
vt 0.375000 0.000000
vt 0.625000 0.000000
vt 0.375000 0.250000
vt 0.625000 0.250000
vt 0.375000 0.500000
vt 0.625000 0.500000
vt 0.375000 0.750000
vt 0.625000 0.750000
vt 0.375000 1.000000
vt 0.625000 1.000000
vt 0.875000 0.000000
vt 0.875000 0.250000
vt 0.125000 0.000000
vt 0.125000 0.250000
vt 0.564964 0.250000
vt 0.564964 0.500000
vt 0.564964 0.750000
vt 0.564964 0.000000
vt 0.564964 1.000000
vn 0.020472 0.179500 0.983545
vn 0.058931 0.125764 0.990308
vn 0.059143 0.125464 0.990334
vn 0.020472 0.179500 0.983545
vn 0.205427 0.978673 0.000000
vn 0.207797 0.978172 0.000000
vn 0.207797 0.978172 0.000000
vn 0.205427 0.978673 0.000000
vn 0.020472 0.179500 -0.983545
vn 0.059143 0.125464 -0.990334
vn 0.058931 0.125764 -0.990308
vn 0.020472 0.179500 -0.983545
vn -0.216655 -0.976248 0.000000
vn -0.216655 -0.976248 0.000000
vn -0.216655 -0.976248 0.000000
vn -0.216655 -0.976248 0.000000
vn 0.976248 -0.216655 0.000000
vn 0.976248 -0.216655 0.000000
vn 0.976248 -0.216655 0.000000
vn 0.976248 -0.216655 0.000000
vn -0.970211 0.242261 0.000000
vn -0.970211 0.242261 0.000000
vn -0.970211 0.242261 0.000000
vn -0.970211 0.242261 0.000000
vn 0.216655 0.976248 0.000000
vn 0.216655 0.976248 0.000000
vn 0.172369 -0.038253 -0.984289
vn 0.172369 -0.038253 -0.984289
vn -0.216655 -0.976248 0.000000
vn -0.216655 -0.976248 0.000000
vn 0.172369 -0.038253 0.984289
vn 0.172369 -0.038253 0.984289
s 1
g stapler_master group1 top1
usemtl initialShadingGroup
f 41/63/89 52/80/90 49/77/91 43/65/92
s 2
f 43/65/93 49/77/94 50/78/95 45/67/96
s 3
f 45/67/97 50/78/98 51/79/99 47/69/100
s 4
f 47/69/101 51/79/102 52/81/103 41/71/104
s off
f 42/64/105 48/73/106 46/74/107 44/66/108
f 47/75/109 41/63/110 43/65/111 45/76/112
s 2
f 49/77/94 44/66/113 46/68/114 50/78/95
s 3
f 51/79/99 50/78/98 46/68/115 48/70/116
s 4
f 52/81/103 51/79/102 48/70/117 42/72/118
s 1
f 49/77/91 52/80/90 42/64/119 44/66/120
g default
v -6.260921 0.209413 1.495219
v 6.260921 0.209413 1.495219
v -6.260921 1.180492 1.495219
v 6.260921 1.180492 1.495219
v -6.260921 1.180492 -1.495219
v 6.260921 1.180492 -1.495219
v -6.260921 0.209413 -1.495219
v 6.260921 0.209413 -1.495219
v 4.474810 1.180492 1.495219
v 4.474810 1.180492 -1.495219
v 4.474810 0.209413 -1.495219
v 4.474810 0.209413 1.495219
v 4.474810 2.559605 1.495219
v 6.260921 2.559605 1.495219
v 6.260921 2.559605 -1.495219
v 4.474810 2.559605 -1.495219
vt 0.375000 0.000000
vt 0.625000 0.000000
vt 0.375000 0.250000
vt 0.625000 0.250000
vt 0.375000 0.500000
vt 0.625000 0.500000
vt 0.375000 0.750000
vt 0.625000 0.750000
vt 0.375000 1.000000
vt 0.625000 1.000000
vt 0.875000 0.000000
vt 0.875000 0.250000
vt 0.125000 0.000000
vt 0.125000 0.250000
vt 0.589340 0.250000
vt 0.589340 0.500000
vt 0.589340 0.750000
vt 0.589340 0.000000
vt 0.589340 1.000000
vt 0.589340 0.250000
vt 0.625000 0.250000
vt 0.625000 0.500000
vt 0.589340 0.500000
vn 0.000000 0.000000 1.000000
vn 0.000000 0.000000 1.000000
vn 0.000000 0.000000 1.000000
vn 0.000000 0.000000 1.000000
vn 0.000000 1.000000 0.000000
vn 0.000000 1.000000 0.000000
vn 0.000000 1.000000 0.000000
vn 0.000000 1.000000 0.000000
vn 0.000000 0.000000 -1.000000
vn 0.000000 0.000000 -1.000000
vn 0.000000 0.000000 -1.000000
vn 0.000000 0.000000 -1.000000
vn 0.000000 -1.000000 0.000000
vn 0.000000 -1.000000 0.000000
vn 0.000000 -1.000000 0.000000
vn 0.000000 -1.000000 0.000000
vn 1.000000 0.000000 0.000000
vn 1.000000 0.000000 0.000000
vn 1.000000 0.000000 0.000000
vn 1.000000 0.000000 0.000000
vn -1.000000 0.000000 0.000000
vn -1.000000 0.000000 0.000000
vn -1.000000 0.000000 0.000000
vn -1.000000 0.000000 0.000000
vn 0.000000 1.000000 0.000000
vn 0.000000 1.000000 0.000000
vn 0.000000 1.000000 0.000000
vn 0.000000 1.000000 0.000000
vn 0.000000 0.000000 -1.000000
vn 0.000000 0.000000 -1.000000
vn 0.000000 -1.000000 0.000000
vn 0.000000 -1.000000 0.000000
vn 0.000000 0.000000 1.000000
vn 0.000000 0.000000 1.000000
vn 0.000000 0.000000 1.000000
vn 0.000000 0.000000 1.000000
vn 1.000000 0.000000 0.000000
vn 1.000000 0.000000 0.000000
vn 0.000000 0.000000 -1.000000
vn 0.000000 0.000000 -1.000000
vn -1.000000 0.000000 0.000000
vn -1.000000 0.000000 0.000000
vn -1.000000 0.000000 0.000000
vn -1.000000 0.000000 0.000000
s 1
g stapler_master bottom group2
usemtl initialShadingGroup
f 53/82/121 64/99/122 61/96/123 55/84/124
s off
f 55/84/125 61/96/126 62/97/127 57/86/128
s 2
f 57/86/129 62/97/130 63/98/131 59/88/132
s 3
f 59/88/133 63/98/134 64/100/135 53/90/136
s 4
f 54/83/137 60/92/138 58/93/139 56/85/140
s off
f 59/94/141 53/82/142 55/84/143 57/95/144
f 65/101/145 66/102/146 67/103/147 68/104/148
s 2
f 63/98/131 62/97/130 58/87/149 60/89/150
s 3
f 64/100/135 63/98/134 60/89/151 54/91/152
s 1
f 61/96/123 64/99/122 54/83/153 56/85/154
f 61/96/123 56/85/154 66/102/155 65/101/156
s 4
f 56/85/140 58/87/139 67/103/157 66/102/158
s 2
f 58/87/149 62/97/130 68/104/159 67/103/160
s off
f 62/97/161 61/96/162 65/101/163 68/104/164
g default
v -5.696133 0.998933 0.826249
v -4.043634 0.998933 0.826249
v -5.696133 1.252933 0.826249
v -4.043634 1.252933 0.826249
v -5.696133 1.252933 -0.826249
v -4.043634 1.252933 -0.826249
v -5.696133 0.998933 -0.826249
v -4.043634 0.998933 -0.826249
vt 0.375000 0.000000
vt 0.625000 0.000000
vt 0.375000 0.250000
vt 0.625000 0.250000
vt 0.375000 0.500000
vt 0.625000 0.500000
vt 0.375000 0.750000
vt 0.625000 0.750000
vt 0.375000 1.000000
vt 0.625000 1.000000
vt 0.875000 0.000000
vt 0.875000 0.250000
vt 0.125000 0.000000
vt 0.125000 0.250000
vn 0.000000 0.000000 1.000000
vn 0.000000 0.000000 1.000000
vn 0.000000 0.000000 1.000000
vn 0.000000 0.000000 1.000000
vn 0.000000 1.000000 0.000000
vn 0.000000 1.000000 0.000000
vn 0.000000 1.000000 0.000000
vn 0.000000 1.000000 0.000000
vn 0.000000 0.000000 -1.000000
vn 0.000000 0.000000 -1.000000
vn 0.000000 0.000000 -1.000000
vn 0.000000 0.000000 -1.000000
vn 0.000000 -1.000000 0.000000
vn 0.000000 -1.000000 0.000000
vn 0.000000 -1.000000 0.000000
vn 0.000000 -1.000000 0.000000
vn 1.000000 0.000000 0.000000
vn 1.000000 0.000000 0.000000
vn 1.000000 0.000000 0.000000
vn 1.000000 0.000000 0.000000
vn -1.000000 0.000000 0.000000
vn -1.000000 0.000000 0.000000
vn -1.000000 0.000000 0.000000
vn -1.000000 0.000000 0.000000
s off
g stapler_master group2 bottom_metal
usemtl initialShadingGroup
f 69/105/165 70/106/166 72/108/167 71/107/168
f 71/107/169 72/108/170 74/110/171 73/109/172
f 73/109/173 74/110/174 76/112/175 75/111/176
f 75/111/177 76/112/178 70/114/179 69/113/180
f 70/106/181 76/115/182 74/116/183 72/108/184
f 75/117/185 69/105/186 71/107/187 73/118/188
