# This file uses inches as units for non-parametric coordinates.

mtllib monitor.mtl
g default
v 0.737718 -0.529058 -0.737718
v 0.000000 -0.529058 -1.043291
v -0.737718 -0.529058 -0.737718
v -1.043291 -0.529058 0.000000
v -0.737718 -0.529058 0.737718
v 0.000000 -0.529058 1.043291
v 0.737718 -0.529058 0.737718
v 1.043291 -0.529058 0.000000
v 0.737718 2.654941 -0.737718
v 0.000000 2.654941 -1.043291
v -0.737718 2.654941 -0.737718
v -1.043291 2.654941 0.000000
v -0.737718 2.654941 0.737718
v 0.000000 2.654941 1.043291
v 0.737718 2.654941 0.737718
v 1.043291 2.654941 0.000000
v 0.000000 -0.529058 0.000000
v 0.000000 2.654941 0.000000
vt 0.610485 0.045765
vt 0.500000 0.000000
vt 0.389515 0.045765
vt 0.343750 0.156250
vt 0.389515 0.266735
vt 0.500000 0.312500
vt 0.610485 0.266735
vt 0.656250 0.156250
vt 0.375000 0.312500
vt 0.406250 0.312500
vt 0.437500 0.312500
vt 0.468750 0.312500
vt 0.500000 0.312500
vt 0.531250 0.312500
vt 0.562500 0.312500
vt 0.593750 0.312500
vt 0.625000 0.312500
vt 0.375000 0.688440
vt 0.406250 0.688440
vt 0.437500 0.688440
vt 0.468750 0.688440
vt 0.500000 0.688440
vt 0.531250 0.688440
vt 0.562500 0.688440
vt 0.593750 0.688440
vt 0.625000 0.688440
vt 0.610485 0.733265
vt 0.500000 0.687500
vt 0.389515 0.733265
vt 0.343750 0.843750
vt 0.389515 0.954235
vt 0.500000 1.000000
vt 0.610485 0.954235
vt 0.656250 0.843750
vt 0.500000 0.150000
vt 0.500000 0.837500
vn 0.382683 0.000000 -0.923880
vn 0.382683 0.000000 -0.923880
vn 0.382683 0.000000 -0.923880
vn 0.382683 0.000000 -0.923880
vn -0.382683 0.000000 -0.923880
vn -0.382683 0.000000 -0.923880
vn -0.382683 0.000000 -0.923880
vn -0.382683 0.000000 -0.923880
vn -0.923880 0.000000 -0.382683
vn -0.923880 0.000000 -0.382683
vn -0.923880 0.000000 -0.382683
vn -0.923880 0.000000 -0.382683
vn -0.923880 0.000000 0.382683
vn -0.923880 0.000000 0.382683
vn -0.923880 0.000000 0.382683
vn -0.923880 0.000000 0.382683
vn -0.382683 0.000000 0.923880
vn -0.382683 0.000000 0.923880
vn -0.382683 0.000000 0.923880
vn -0.382683 0.000000 0.923880
vn 0.382683 0.000000 0.923880
vn 0.382683 0.000000 0.923880
vn 0.382683 0.000000 0.923880
vn 0.382683 0.000000 0.923880
vn 0.923880 0.000000 0.382683
vn 0.923880 0.000000 0.382683
vn 0.923880 0.000000 0.382683
vn 0.923880 0.000000 0.382683
vn 0.923880 0.000000 -0.382683
vn 0.923880 0.000000 -0.382683
vn 0.923880 0.000000 -0.382683
vn 0.923880 0.000000 -0.382683
vn 0.000000 -1.000000 0.000000
vn 0.000000 -1.000000 0.000000
vn 0.000000 -1.000000 0.000000
vn 0.000000 -1.000000 0.000000
vn 0.000000 -1.000000 0.000000
vn 0.000000 -1.000000 -0.000000
vn 0.000000 -1.000000 0.000000
vn 0.000000 -1.000000 0.000000
vn 0.000000 -1.000000 0.000000
vn 0.000000 1.000000 0.000000
vn 0.000000 1.000000 0.000000
vn 0.000000 1.000000 0.000000
vn 0.000000 1.000000 0.000000
vn 0.000000 1.000000 0.000000
vn 0.000000 1.000000 -0.000000
vn 0.000000 1.000000 0.000000
vn 0.000000 1.000000 0.000000
vn 0.000000 1.000000 0.000000
s off
g connector base monitor
usemtl initialShadingGroup
f 1/9/1 2/10/2 10/19/3 9/18/4
f 2/10/5 3/11/6 11/20/7 10/19/8
f 3/11/9 4/12/10 12/21/11 11/20/12
f 4/12/13 5/13/14 13/22/15 12/21/16
f 5/13/17 6/14/18 14/23/19 13/22/20
f 6/14/21 7/15/22 15/24/23 14/23/24
f 7/15/25 8/16/26 16/25/27 15/24/28
f 8/16/29 1/17/30 9/26/31 16/25/32
s 1
f 2/2/33 1/1/34 17/35/35
f 3/3/36 2/2/33 17/35/35
f 4/4/37 3/3/36 17/35/35
f 5/5/38 4/4/37 17/35/35
f 6/6/39 5/5/38 17/35/35
f 7/7/40 6/6/39 17/35/35
f 8/8/41 7/7/40 17/35/35
f 1/1/34 8/8/41 17/35/35
s 2
f 9/33/42 10/32/43 18/36/44
f 10/32/43 11/31/45 18/36/44
f 11/31/45 12/30/46 18/36/44
f 12/30/46 13/29/47 18/36/44
f 13/29/47 14/28/48 18/36/44
f 14/28/48 15/27/49 18/36/44
f 15/27/49 16/34/50 18/36/44
f 16/34/50 9/33/42 18/36/44
g default
v 6.483906 -0.635000 -3.837335
v 0.000000 -0.635000 -5.426811
v -6.483906 -0.635000 -3.837335
v -9.169628 -0.635000 0.000000
v -6.483906 -0.635000 3.837335
v 0.000000 -0.635000 5.426811
v 6.483907 -0.635000 3.837335
v 9.169629 -0.635000 0.000000
v 0.000000 0.635000 0.000000
vt 0.676777 0.073223
vt 0.500000 0.000000
vt 0.323223 0.073223
vt 0.250000 0.250000
vt 0.323223 0.426777
vt 0.500000 0.500000
vt 0.676777 0.426777
vt 0.750000 0.250000
vt 0.250000 0.500000
vt 0.312500 0.500000
vt 0.375000 0.500000
vt 0.437500 0.500000
vt 0.500000 0.500000
vt 0.562500 0.500000
vt 0.625000 0.500000
vt 0.687500 0.500000
vt 0.750000 0.500000
vt 0.500000 1.000000
vn 0.000000 -1.000000 0.000000
vn 0.000000 -1.000000 0.000000
vn 0.000000 -1.000000 0.000000
vn 0.000000 -1.000000 0.000000
vn 0.000000 -1.000000 0.000000
vn 0.000000 -1.000000 0.000000
vn 0.000000 -1.000000 0.000000
vn 0.000000 -1.000000 0.000000
vn 0.055773 0.972177 -0.227512
vn 0.055773 0.972177 -0.227512
vn 0.055773 0.972177 -0.227512
vn -0.055773 0.972177 -0.227512
vn -0.055773 0.972177 -0.227512
vn -0.055773 0.972177 -0.227512
vn -0.136563 0.986010 -0.095579
vn -0.136563 0.986010 -0.095579
vn -0.136563 0.986010 -0.095579
vn -0.136563 0.986010 0.095579
vn -0.136563 0.986010 0.095579
vn -0.136563 0.986010 0.095579
vn -0.055773 0.972177 0.227512
vn -0.055773 0.972177 0.227512
vn -0.055773 0.972177 0.227512
vn 0.055773 0.972177 0.227512
vn 0.055773 0.972177 0.227512
vn 0.055773 0.972177 0.227512
vn 0.136563 0.986010 0.095579
vn 0.136563 0.986010 0.095579
vn 0.136563 0.986010 0.095579
vn 0.136563 0.986010 -0.095579
vn 0.136563 0.986010 -0.095579
vn 0.136563 0.986010 -0.095579
s off
g base monitor base
usemtl initialShadingGroup
f 19/37/51 26/44/52 25/43/53 24/42/54 23/41/55 22/40/56 21/39/57 20/38/58
f 19/45/59 20/46/60 27/54/61
f 20/46/62 21/47/63 27/54/64
f 21/47/65 22/48/66 27/54/67
f 22/48/68 23/49/69 27/54/70
f 23/49/71 24/50/72 27/54/73
f 24/50/74 25/51/75 27/54/76
f 25/51/77 26/52/78 27/54/79
f 26/52/80 19/53/81 27/54/82
g default
v -15.240000 2.077043 1.270000
v 15.240000 2.077043 1.270000
v -15.240000 27.477043 1.270000
v 15.240000 27.477043 1.270000
v -15.240000 27.477043 -1.270000
v 15.240000 27.477043 -1.270000
v -15.240000 2.077043 -1.270000
v 15.240000 2.077043 -1.270000
v 13.971045 27.477043 -1.270000
v 13.971045 2.077043 -1.270000
v 13.971045 2.077043 1.270000
v 13.971045 27.477043 1.270000
v 15.240001 26.284943 -1.270000
v 13.971045 26.284943 -1.270000
v -15.240001 26.284943 -1.270000
v -15.240000 26.284943 1.270000
v 13.971045 26.284943 1.270000
v 15.240000 26.284943 1.270000
v -13.943221 26.284943 -1.270000
v -13.943220 27.477043 -1.270000
v -13.943220 27.477043 1.270000
v -13.943220 26.284943 1.270000
v -13.943220 2.077043 1.270000
v -13.943220 2.077043 -1.270000
v -13.943220 3.297080 -1.270000
v 13.971045 3.297080 -1.270000
v 15.240000 3.297080 -1.270000
v 15.240000 3.297080 1.270000
v 13.971045 3.297080 1.270000
v -13.943220 3.297080 1.270000
v -15.240000 3.297080 1.270000
v -15.240000 3.297080 -1.270000
v -13.943220 3.297080 0.760341
v -13.943221 26.284943 0.760341
v 13.971045 26.284943 0.760341
v 13.971045 3.297080 0.760341
vt 0.375000 0.000000
vt 0.625000 0.000000
vt 0.375000 0.250000
vt 0.625000 0.250000
vt 0.375000 0.500000
vt 0.625000 0.500000
vt 0.375000 0.750000
vt 0.625000 0.750000
vt 0.375000 1.000000
vt 0.625000 1.000000
vt 0.875000 0.000000
vt 0.875000 0.250000
vt 0.125000 0.000000
vt 0.125000 0.250000
vt 0.614592 0.500000
vt 0.614592 0.750000
vt 0.614592 0.000000
vt 0.614592 1.000000
vt 0.614592 0.250000
vt 0.625000 0.511733
vt 0.875000 0.238267
vt 0.614592 0.511733
vt 0.125000 0.238267
vt 0.375000 0.511733
vt 0.375000 0.238267
vt 0.614592 0.238267
vt 0.625000 0.238267
vt 0.385636 0.511733
vt 0.385636 0.500000
vt 0.385636 0.250000
vt 0.385636 0.238267
vt 0.385636 0.000000
vt 0.385636 1.000000
vt 0.385636 0.750000
vt 0.385636 0.737992
vt 0.614592 0.737992
vt 0.625000 0.737992
vt 0.875000 0.012008
vt 0.625000 0.012008
vt 0.614592 0.012008
vt 0.385636 0.012008
vt 0.375000 0.012008
vt 0.125000 0.012008
vt 0.375000 0.737992
vt 0.385636 0.737992
vt 0.385636 0.511733
vt 0.614592 0.511733
vt 0.614592 0.737992
vn 0.000000 0.000000 1.000000
vn 0.000000 0.000000 1.000000
vn 0.000000 0.000000 1.000000
vn 0.000000 0.000000 1.000000
vn 0.000000 1.000000 0.000000
vn 0.000000 1.000000 0.000000
vn 0.000000 1.000000 0.000000
vn 0.000000 1.000000 0.000000
vn 0.000000 0.000000 -1.000000
vn 0.000000 0.000000 -1.000000
vn 0.000000 0.000000 -1.000000
vn 0.000000 0.000000 -1.000000
vn 0.000000 -1.000000 0.000000
vn 0.000000 -1.000000 0.000000
vn 0.000000 -1.000000 0.000000
vn 0.000000 -1.000000 0.000000
vn 1.000000 0.000000 0.000000
vn 1.000000 0.000000 0.000000
vn 1.000000 0.000000 0.000000
vn 1.000000 0.000000 0.000000
vn -1.000000 0.000000 0.000000
vn -1.000000 0.000000 0.000000
vn -1.000000 0.000000 0.000000
vn -1.000000 0.000000 0.000000
vn 0.000000 0.000000 -1.000000
vn 0.000000 0.000000 -1.000000
vn 0.000000 -1.000000 0.000000
vn 0.000000 -1.000000 0.000000
vn 0.000000 0.000000 1.000000
vn 0.000000 0.000000 1.000000
vn 0.000000 1.000000 0.000000
vn 0.000000 1.000000 0.000000
vn 0.000000 0.000000 -1.000000
vn 0.000000 0.000000 -1.000000
vn 0.000000 0.000000 -1.000000
vn 0.000000 0.000000 -1.000000
vn 0.000000 0.000000 -1.000000
vn 0.000000 0.000000 -1.000000
vn -1.000000 0.000000 0.000000
vn -1.000000 0.000000 0.000000
vn -1.000000 0.000000 0.000000
vn -1.000000 0.000000 0.000000
vn 0.000000 0.000000 1.000000
vn 0.000000 0.000000 1.000000
vn 0.000000 0.000000 1.000000
vn 0.000000 0.000000 1.000000
vn 0.000000 0.000000 1.000000
vn 0.000000 0.000000 1.000000
vn 1.000000 0.000000 0.000000
vn 1.000000 0.000000 0.000000
vn 1.000000 0.000000 0.000000
vn 1.000000 0.000000 0.000000
vn 0.000000 0.000000 -1.000000
vn 0.000000 0.000000 -1.000000
vn 0.000000 1.000000 0.000000
vn 0.000000 1.000000 0.000000
vn 0.000000 0.000000 1.000000
vn 0.000000 0.000000 1.000000
vn 0.000000 0.000000 1.000000
vn 0.000000 0.000000 1.000000
vn 0.000000 -1.000000 0.000000
vn 0.000000 -1.000000 0.000000
vn 0.000000 0.000000 -1.000000
vn 0.000000 0.000000 -1.000000
vn 0.000000 0.000000 -1.000000
vn 0.000000 0.000000 -1.000000
vn 0.000000 0.000000 -1.000000
vn 0.000000 0.000000 -1.000000
vn 1.000000 0.000000 0.000000
vn 1.000000 0.000000 0.000000
vn 1.000000 0.000000 0.000000
vn 1.000000 0.000000 0.000000
vn 0.000000 -1.000000 0.000000
vn 0.000000 -1.000000 0.000000
vn 0.000000 -1.000000 0.000000
vn 0.000000 -1.000000 0.000000
vn -1.000000 0.000000 0.000000
vn -1.000000 0.000000 0.000000
vn -1.000000 0.000000 0.000000
vn -1.000000 0.000000 0.000000
vn 0.000000 1.000000 0.000000
vn 0.000000 1.000000 0.000000
vn 0.000000 1.000000 0.000000
vn 0.000000 1.000000 0.000000
s 1
g monitor monitor screen
usemtl initialShadingGroup
f 49/85/83 44/80/84 39/73/85 48/84/86
s 2
f 48/84/87 39/73/88 36/69/89 47/83/90
s 3
f 47/83/91 36/69/92 41/76/93 46/82/94
s 4
f 51/88/95 37/70/96 38/72/97 50/87/98
s 5
f 45/81/99 40/75/100 33/66/101 31/58/102
s 6
f 42/77/103 43/79/104 30/57/105 32/68/106
s 3
f 36/69/92 33/60/107 40/74/108 41/76/93
s 4
f 38/72/97 37/70/96 35/62/109 29/64/110
s 1
f 39/73/85 44/80/84 45/81/111 31/58/112
s 2
f 36/69/89 39/73/88 31/58/113 33/60/114
s 3
f 53/90/115 54/91/116 35/62/117 37/70/118
f 51/88/119 52/89/120 53/90/115 37/70/118
s 6
f 34/67/121 28/55/122 58/96/123 59/97/124
s 1
f 50/86/125 38/71/126 56/94/127 57/95/128
f 55/93/129 56/94/127 38/71/126 29/56/130
s 5
f 29/56/131 35/65/132 54/92/133 55/93/134
s 3
f 32/59/135 47/83/91 46/82/94 42/78/136
s 2
f 30/57/137 48/84/87 47/83/90 32/59/138
s 1
f 43/79/139 49/85/83 48/84/86 30/57/140
f 28/55/141 50/86/125 57/95/128 58/96/142
s 4
f 34/61/143 51/88/95 50/87/98 28/63/144
s 3
f 59/98/145 52/89/120 51/88/119 34/61/146
s off
f 60/99/147 61/100/148 62/101/149 63/102/150
s 3
f 41/76/93 40/74/108 54/91/116 53/90/115
s 5
f 55/93/134 54/92/133 40/75/100 45/81/99
s 1
f 45/81/111 44/80/84 56/94/127 55/93/129
f 57/95/128 56/94/127 44/80/84 49/85/83
f 58/96/142 57/95/128 49/85/83 43/79/139
s 6
f 59/97/124 58/96/123 43/79/104 42/77/103
s 3
f 42/78/136 46/82/94 52/89/120 59/98/145
s off
f 52/89/151 46/82/152 61/100/153 60/99/154
f 46/82/155 41/76/156 62/101/157 61/100/158
f 41/76/159 53/90/160 63/102/161 62/101/162
f 53/90/163 52/89/164 60/99/165 63/102/166
g default
v -14.605000 26.882450 -0.697350
v -8.763000 26.882450 -0.697350
v -2.921000 26.882450 -0.697350
v 2.921001 26.882450 -0.697350
v 8.763000 26.882450 -0.697350
v 14.605000 26.882450 -0.697350
v -14.605000 22.056450 -0.697350
v -8.763000 22.056450 -0.697350
v -2.921000 22.056450 -0.697350
v 2.921001 22.056450 -0.697350
v 8.763000 22.056450 -0.697350
v 14.605000 22.056450 -0.697350
v -14.605000 17.230450 -0.697350
v -8.763000 17.230450 -0.697350
v -2.921000 17.230450 -0.697350
v 2.921001 17.230450 -0.697350
v 8.763000 17.230450 -0.697350
v 14.605000 17.230450 -0.697350
v -14.605000 12.404451 -0.697350
v -8.763000 12.404451 -0.697350
v -2.921000 12.404451 -0.697350
v 2.921001 12.404451 -0.697350
v 8.763000 12.404451 -0.697350
v 14.605000 12.404451 -0.697350
v -14.605000 7.578451 -0.697350
v -8.763000 7.578451 -0.697350
v -2.921000 7.578451 -0.697350
v 2.921001 7.578451 -0.697350
v 8.763000 7.578451 -0.697350
v 14.605000 7.578451 -0.697350
v -14.605000 2.752451 -0.697350
v -8.763000 2.752451 -0.697350
v -2.921000 2.752451 -0.697350
v 2.921001 2.752451 -0.697350
v 8.763000 2.752451 -0.697350
v 14.605000 2.752451 -0.697350
vt 0.000000 0.000000
vt 0.200000 0.000000
vt 0.400000 0.000000
vt 0.600000 0.000000
vt 0.800000 0.000000
vt 1.000000 0.000000
vt 0.000000 0.165217
vt 0.200000 0.165217
vt 0.400000 0.165217
vt 0.600000 0.165217
vt 0.800000 0.165217
vt 1.000000 0.165217
vt 0.000000 0.330435
vt 0.200000 0.330435
vt 0.400000 0.330435
vt 0.600000 0.330435
vt 0.800000 0.330435
vt 1.000000 0.330435
vt 0.000000 0.495652
vt 0.200000 0.495652
vt 0.400000 0.495652
vt 0.600000 0.495652
vt 0.800000 0.495652
vt 1.000000 0.495652
vt 0.000000 0.660870
vt 0.200000 0.660870
vt 0.400000 0.660870
vt 0.600000 0.660870
vt 0.800000 0.660870
vt 1.000000 0.660870
vt 0.000000 0.826087
vt 0.200000 0.826087
vt 0.400000 0.826087
vt 0.600000 0.826087
vt 0.800000 0.826087
vt 1.000000 0.826087
vn 0.000000 0.000000 -1.000000
vn 0.000000 0.000000 -1.000000
vn 0.000000 0.000000 -1.000000
vn 0.000000 0.000000 -1.000000
vn 0.000000 0.000000 -1.000000
vn 0.000000 0.000000 -1.000000
vn 0.000000 0.000000 -1.000000
vn 0.000000 0.000000 -1.000000
vn 0.000000 0.000000 -1.000000
vn 0.000000 0.000000 -1.000000
vn 0.000000 0.000000 -1.000000
vn 0.000000 0.000000 -1.000000
vn 0.000000 0.000000 -1.000000
vn 0.000000 0.000000 -1.000000
vn 0.000000 0.000000 -1.000000
vn 0.000000 0.000000 -1.000000
vn 0.000000 0.000000 -1.000000
vn 0.000000 0.000000 -1.000000
vn 0.000000 0.000000 -1.000000
vn 0.000000 0.000000 -1.000000
vn 0.000000 0.000000 -1.000000
vn 0.000000 0.000000 -1.000000
vn 0.000000 0.000000 -1.000000
vn 0.000000 0.000000 -1.000000
vn 0.000000 0.000000 -1.000000
vn 0.000000 0.000000 -1.000000
vn 0.000000 0.000000 -1.000000
vn 0.000000 0.000000 -1.000000
vn 0.000000 0.000000 -1.000000
vn 0.000000 0.000000 -1.000000
vn 0.000000 0.000000 -1.000000
vn 0.000000 0.000000 -1.000000
vn 0.000000 0.000000 -1.000000
vn 0.000000 0.000000 -1.000000
vn 0.000000 0.000000 -1.000000
vn 0.000000 0.000000 -1.000000
s 1
g monitor screen screen
usemtl initialShadingGroup
f 64/103/167 65/104/168 71/110/169 70/109/170
f 65/104/168 66/105/171 72/111/172 71/110/169
f 66/105/171 67/106/173 73/112/174 72/111/172
f 67/106/173 68/107/175 74/113/176 73/112/174
f 68/107/175 69/108/177 75/114/178 74/113/176
f 70/109/170 71/110/169 77/116/179 76/115/180
f 71/110/169 72/111/172 78/117/181 77/116/179
f 72/111/172 73/112/174 79/118/182 78/117/181
f 73/112/174 74/113/176 80/119/183 79/118/182
f 74/113/176 75/114/178 81/120/184 80/119/183
f 76/115/180 77/116/179 83/122/185 82/121/186
f 77/116/179 78/117/181 84/123/187 83/122/185
f 78/117/181 79/118/182 85/124/188 84/123/187
f 79/118/182 80/119/183 86/125/189 85/124/188
f 80/119/183 81/120/184 87/126/190 86/125/189
f 82/121/186 83/122/185 89/128/191 88/127/192
f 83/122/185 84/123/187 90/129/193 89/128/191
f 84/123/187 85/124/188 91/130/194 90/129/193
f 85/124/188 86/125/189 92/131/195 91/130/194
f 86/125/189 87/126/190 93/132/196 92/131/195
f 88/127/192 89/128/191 95/134/197 94/133/198
f 89/128/191 90/129/193 96/135/199 95/134/197
f 90/129/193 91/130/194 97/136/200 96/135/199
f 91/130/194 92/131/195 98/137/201 97/136/200
f 92/131/195 93/132/196 99/138/202 98/137/201
